<svg width="10" height="10" viewBox="0 0 10 10" fill="none" xmlns="http://www.w3.org/2000/svg">
<path fill-rule="evenodd" clip-rule="evenodd" d="M9.06579 1.78033C9.35868 1.48744 9.35868 1.01256 9.06579 0.71967C8.7729 0.426777 8.29802 0.426777 8.00513 0.71967L4.99993 3.72487L1.9948 0.719741C1.7019 0.426848 1.22703 0.426848 0.934138 0.719741C0.641245 1.01263 0.641245 1.48751 0.934138 1.7804L3.93927 4.78553L0.58051 8.14429C0.287616 8.43718 0.287616 8.91206 0.58051 9.20495C0.873403 9.49784 1.34828 9.49784 1.64117 9.20495L4.99993 5.84619L8.35876 9.20502C8.65165 9.49791 9.12653 9.49791 9.41942 9.20502C9.71231 8.91213 9.71231 8.43725 9.41942 8.14436L6.06059 4.78553L9.06579 1.78033Z" fill="#E51515"/>
</svg>
